<?xml version="1.0" encoding="UTF-8" standalone="no"?>
<!-- Created with Inkscape (http://www.inkscape.org/) -->

<svg
   width="180"
   height="180"
   viewBox="0 0 180 180"
   version="1.1"
   id="svg5"
   sodipodi:docname="180x180.svg"
   inkscape:version="1.2 (dc2aedaf03, 2022-05-15)"
   xmlns:inkscape="http://www.inkscape.org/namespaces/inkscape"
   xmlns:sodipodi="http://sodipodi.sourceforge.net/DTD/sodipodi-0.dtd"
   xmlns="http://www.w3.org/2000/svg"
   xmlns:svg="http://www.w3.org/2000/svg">
  <sodipodi:namedview
     id="namedview7"
     pagecolor="#505050"
     bordercolor="#ffffff"
     borderopacity="1"
     inkscape:showpageshadow="0"
     inkscape:pageopacity="0"
     inkscape:pagecheckerboard="1"
     inkscape:deskcolor="#505050"
     inkscape:document-units="px"
     showgrid="false"
     inkscape:zoom="0.67704897"
     inkscape:cx="165.42378"
     inkscape:cy="184.62475"
     inkscape:window-width="1366"
     inkscape:window-height="699"
     inkscape:window-x="0"
     inkscape:window-y="32"
     inkscape:window-maximized="1"
     inkscape:current-layer="layer1" />
  <defs
     id="defs2" />
  <g
     inkscape:label="Layer 1"
     inkscape:groupmode="layer"
     id="layer1">
    <path
       id="path428"
       style="fill:#ff0000;fill-rule:evenodd"
       d="M 95 95 L 95 170 L 170 170 L 170 95 L 95 95 z M 135.16602 118.49609 L 139.87305 118.49609 L 139.87305 136.85547 L 143.64258 136.85547 L 143.64258 140.70312 L 139.87305 140.70312 L 139.87305 146.50391 L 135.86914 146.50391 L 135.86914 140.70312 L 121.35742 140.70312 L 121.35742 136.85547 L 135.16602 118.49609 z M 135.86914 123.33984 L 125.71289 136.85547 L 135.86914 136.85547 L 135.86914 123.33984 z " />
    <path
       id="path426"
       style="fill:#00ff00;fill-rule:evenodd"
       d="M 10 95 L 10 170 L 85 170 L 85 95 L 10 95 z M 43.740234 118.49609 L 51.259766 118.49609 C 53.564451 118.49609 55.270183 119.05599 56.376953 120.17578 C 57.496744 121.29557 58.056641 123.00781 58.056641 125.3125 L 58.056641 125.82031 C 58.056641 127.39583 57.776692 128.69792 57.216797 129.72656 C 56.669922 130.74219 55.86914 131.4974 54.814453 131.99219 C 55.999348 132.34375 56.904297 133.04688 57.529297 134.10156 C 58.154296 135.15625 58.466797 136.55599 58.466797 138.30078 L 58.466797 139.70703 C 58.466797 144.23828 56.201167 146.50391 51.669922 146.50391 L 43.349609 146.50391 C 38.805343 146.50391 36.533203 144.23828 36.533203 139.70703 L 36.533203 138.02734 L 40.458984 138.02734 L 40.458984 139.51172 C 40.458984 140.56641 40.69336 141.34115 41.162109 141.83594 C 41.630859 142.33073 42.39909 142.57812 43.466797 142.57812 L 51.533203 142.57812 C 52.60091 142.57812 53.369141 142.33073 53.837891 141.83594 C 54.30664 141.34115 54.541016 140.56641 54.541016 139.51172 L 54.541016 137.34375 C 54.541016 136.27604 54.30664 135.5013 53.837891 135.01953 C 53.369141 134.53776 52.60091 134.29688 51.533203 134.29688 L 43.251953 134.29688 L 43.251953 130.39062 L 51.416016 130.39062 C 52.392577 130.35156 53.089193 130.09115 53.505859 129.60938 C 53.935546 129.11458 54.150391 128.35937 54.150391 127.34375 L 54.150391 125.50781 C 54.150391 124.44011 53.909505 123.65885 53.427734 123.16406 C 52.958985 122.66927 52.197265 122.42188 51.142578 122.42188 L 43.857422 122.42188 C 42.802735 122.42188 42.041015 122.66927 41.572266 123.16406 C 41.103516 123.65885 40.869141 124.44011 40.869141 125.50781 L 40.869141 126.99219 L 36.943359 126.99219 L 36.943359 125.3125 C 36.943359 120.76823 39.208989 118.49609 43.740234 118.49609 z " />
    <path
       id="path424"
       style="fill:#00ff00;fill-rule:evenodd"
       d="M 95 10 L 95 85 L 170 85 L 170 10 L 95 10 z M 125.9082 33.496094 L 138.58398 33.496094 C 139.13086 33.496094 139.64518 33.606771 140.12695 33.828125 C 140.62174 34.036458 141.04492 34.322917 141.39648 34.6875 C 141.76107 35.039062 142.04753 35.46224 142.25586 35.957031 C 142.47721 36.438802 142.58789 36.953126 142.58789 37.5 L 142.58789 42.617188 C 142.58789 43.164062 142.53581 43.652344 142.43164 44.082031 C 142.32747 44.511718 142.1582 44.902344 141.92383 45.253906 C 141.70247 45.592448 141.41602 45.898438 141.06445 46.171875 C 140.71289 46.445312 140.2832 46.705729 139.77539 46.953125 L 125.9082 53.457031 L 125.9082 57.5 L 139.0918 57.5 L 139.0918 53.90625 L 143.0957 53.90625 L 143.0957 61.503906 L 121.9043 61.503906 L 121.9043 54.140625 C 121.9043 53.593751 121.95638 53.105468 122.06055 52.675781 C 122.17773 52.246094 122.34701 51.861979 122.56836 51.523438 C 122.78971 51.184896 123.07617 50.878906 123.42773 50.605469 C 123.79232 50.319011 124.2155 50.058594 124.69727 49.824219 L 138.58398 43.300781 L 138.58398 37.5 L 125.9082 37.5 L 125.9082 41.113281 L 121.9043 41.113281 L 121.9043 37.5 C 121.9043 36.953126 122.00846 36.438802 122.2168 35.957031 C 122.42513 35.46224 122.71159 35.039062 123.07617 34.6875 C 123.44075 34.322917 123.86393 34.036458 124.3457 33.828125 C 124.84049 33.606771 125.36133 33.496094 125.9082 33.496094 z " />
    <path
       id="rect67"
       style="fill:#00ff00;fill-rule:evenodd"
       d="M 10 10 L 10 85 L 85 85 L 85 10 L 10 10 z M 43.095703 33.496094 L 51.904297 33.496094 L 51.904297 61.503906 L 47.900391 61.503906 L 47.900391 37.5 L 43.095703 37.5 L 43.095703 33.496094 z " />
  </g>
</svg>
